<svg width="139" height="35" viewBox="0 0 139 35" fill="none" xmlns="http://www.w3.org/2000/svg"><path d="M22.61 17.03H2.863A2.866 2.866 0 0 0 0 19.893v14.095c0 .807.807 1.248 1.542.88l5.065-2.789c.293.074.66.074 1.028.074h14.902c4.11 0 7.56-3.157 7.707-7.268.074-4.331-3.376-7.855-7.634-7.855zM2.863 15.122h12.48c4.11 0 7.56-3.156 7.707-7.267C23.197 3.524 19.747 0 15.49 0H2.862C1.248 0 0 1.248 0 2.863v9.396a2.866 2.866 0 0 0 2.863 2.863z" fill="#F0B212ff"/><path d="M64.086 17.908v.734c0 .294-.22.441-.514.441h-8.295c-.367 0-.587.367-.44.734.513.954 1.688 1.835 3.303 1.835 1.468 0 2.569-.587 3.083-.954a.478.478 0 0 1 .66.147l1.028 1.615a.478.478 0 0 1-.147.66c-.734.514-2.422 1.542-4.698 1.542-3.89 0-6.827-2.936-6.827-6.68 0-3.744 2.716-6.68 6.387-6.68 3.523-.074 6.46 2.642 6.46 6.606zm-3.817-1.174c.367 0 .587-.367.44-.66-.367-.955-1.321-1.91-3.083-1.91-1.689 0-2.643.955-2.936 1.91-.147.293.146.66.44.66h5.139zm17.618 1.174v.734c0 .294-.22.441-.514.441h-8.296c-.367 0-.587.367-.44.734.514.954 1.689 1.835 3.303 1.835 1.469 0 2.57-.587 3.084-.954a.478.478 0 0 1 .66.147l1.028 1.615a.478.478 0 0 1-.147.66c-.734.514-2.422 1.542-4.698 1.542-3.89 0-6.827-2.936-6.827-6.68 0-3.744 2.716-6.68 6.387-6.68 3.523-.074 6.46 2.642 6.46 6.606zm-3.818-1.174c.367 0 .588-.367.44-.66-.366-.955-1.32-1.91-3.082-1.91-1.689 0-2.643.955-2.937 1.91-.147.293.147.66.44.66h5.14zm30.685 1.176c0 3.744-3.009 6.68-6.753 6.68s-6.754-2.936-6.754-6.68c0-3.744 3.01-6.68 6.754-6.68 3.744 0 6.753 2.936 6.753 6.68zm-3.23 0c0-1.982-1.321-3.67-3.523-3.67-2.203 0-3.524 1.688-3.524 3.67s1.321 3.67 3.524 3.67c2.129 0 3.523-1.688 3.523-3.67zm36.704-.002v.734c0 .294-.22.441-.513.441h-8.296c-.367 0-.587.367-.44.734.514.954 1.688 1.835 3.303 1.835 1.468 0 2.57-.587 3.083-.954a.478.478 0 0 1 .661.147l1.028 1.615a.478.478 0 0 1-.147.66c-.734.514-2.422 1.542-4.698 1.542-3.891 0-6.827-2.936-6.827-6.68 0-3.744 2.716-6.68 6.386-6.68 3.524-.074 6.46 2.642 6.46 6.606zm-3.817-1.174c.367 0 .587-.367.441-.66-.367-.955-1.322-1.91-3.084-1.91-1.688 0-2.642.955-2.936 1.91-.147.293.147.66.441.66h5.138zM44.119 11.23c-1.175 0-2.055.368-2.643.808-.367.22-.514.44-.807 1.028-.22.587-.954.22-.44-.294.22-.293.293-.66.293-.88V7.927a.502.502 0 0 0-.514-.515h-2.202a.502.502 0 0 0-.514.514V23.49c0 .367.367.587.734.44l1.835-1.027c.22-.147.44-.074.588.146.44.588 1.541 1.616 3.597 1.616 3.303 0 6.166-2.79 6.166-6.68.073-3.965-2.79-6.754-6.093-6.754zm-.514 10.351c-1.762 0-2.716-1.248-2.936-1.615-.074-.073-.074-.146-.074-.293v-3.524c0-.073 0-.147.074-.294.22-.44 1.174-1.614 2.936-1.614 2.202 0 3.45 1.614 3.45 3.67.074 2.129-1.248 3.67-3.45 3.67zm42.136-10.277c-1.321 0-2.202.514-2.79.954-.073 0-.073.074-.146.074-.22.22-.367.44-.514.88-.22.588-.954.221-.44-.293.146-.22.293-.66.293-1.027V8a.502.502 0 0 0-.514-.514h-2.202a.502.502 0 0 0-.514.514v15.93c0 .293.22.513.514.513h2.202c.294 0 .514-.22.514-.514v-7.854c0-.074 0-.147.073-.22.22-.367 1.102-1.542 2.423-1.542 1.395 0 2.496.807 2.496 2.57v6.973c0 .294.22.514.514.514h2.202c.294 0 .514-.22.514-.514v-7.781c.073-3.083-2.129-4.772-4.625-4.772zm34.502 0c-1.982 0-3.083.954-3.67 1.615-.22.22-.587.22-.734 0-.514-.661-1.542-1.615-3.597-1.615-1.395 0-2.349.587-2.936 1.174l-.074.074c-.22.22-.367.367-.514.587-.367.514-.881.073-.44-.294.22-.147.293-.367.293-.66v-.074a.501.501 0 0 0-.513-.514h-2.056a.502.502 0 0 0-.514.514v11.672c0 .294.221.514.514.514h2.276c.293 0 .514-.22.514-.514v-7.781c0-.074 0-.147.073-.22.22-.367 1.028-1.542 2.423-1.542 1.615 0 2.275.954 2.275 2.716v6.827c0 .294.22.514.514.514h2.202c.294 0 .514-.22.514-.514v-7.781c0-.074 0-.147.074-.22.22-.367 1.027-1.542 2.422-1.542 1.615 0 2.276.954 2.276 2.716v6.827c0 .294.22.514.514.514h2.275c.294 0 .514-.22.514-.514V16.15c-.147-3.084-2.055-4.845-4.625-4.845z" fill="#020203"/></svg>